<!DOCTYPE svg PUBLIC "-//W3C//DTD SVG 1.1//EN" "http://www.w3.org/Graphics/SVG/1.1/DTD/svg11.dtd" [
	<!ENTITY ns_flows "http://ns.adobe.com/Flows/1.0/">
]><svg xmlns="http://www.w3.org/2000/svg" width="19" height="19" viewBox="0 0 19 19"><path fill="#010202" d="M8.5 19c-2.3 0-4.4-.9-6-2.5-1.6-1.6-2.5-3.7-2.5-6s.9-4.4 2.5-6C4.1 2.9 6.2 2 8.5 2c.3 0 .5.2.5.5s-.2.5-.5.5C4.4 3 1 6.4 1 10.5S4.4 18 8.5 18s7.5-3.4 7.5-7.5c0-.3.2-.5.5-.5s.5.2.5.5c0 2.3-.9 4.4-2.5 6-1.6 1.6-3.7 2.5-6 2.5z"/><path fill="#010202" d="M18.5 9h-8c-.3 0-.5-.2-.5-.5v-8c0-.3.2-.5.5-.5 2.3 0 4.4.9 6 2.5 1.6 1.6 2.5 3.7 2.5 6 0 .3-.2.5-.5.5zM11 8h7c-.2-3.7-3.2-6.7-7-7v7z"/></svg>