<!DOCTYPE svg PUBLIC "-//W3C//DTD SVG 1.1//EN" "http://www.w3.org/Graphics/SVG/1.1/DTD/svg11.dtd" [
	<!ENTITY ns_flows "http://ns.adobe.com/Flows/1.0/">
]><svg xmlns="http://www.w3.org/2000/svg" width="20" height="20" viewBox="0 0 20 20"><path fill="#010202" d="M18.5 20h-17C.7 20 0 19.3 0 18.5v-17C0 .7.7 0 1.5 0h17c.8 0 1.5.7 1.5 1.5v17c0 .8-.7 1.5-1.5 1.5zM1.5 1c-.3 0-.5.2-.5.5v17c0 .3.2.5.5.5h17c.3 0 .5-.2.5-.5v-17c0-.3-.2-.5-.5-.5h-17z"/><path fill="#010202" d="M5 2.5c0 .3-.2.5-.5.5S4 2.8 4 2.5s.2-.5.5-.5.5.2.5.5zM5 3.5c0 .3-.2.5-.5.5S4 3.8 4 3.5s.2-.5.5-.5.5.2.5.5zM5 4.5c0 .3-.2.5-.5.5S4 4.8 4 4.5s.2-.5.5-.5.5.2.5.5zM5 5.5c0 .3-.2.5-.5.5S4 5.8 4 5.5s.2-.5.5-.5.5.2.5.5zM5 6.5c0 .3-.2.5-.5.5S4 6.8 4 6.5s.2-.5.5-.5.5.2.5.5zM5 7.5c0 .3-.2.5-.5.5S4 7.8 4 7.5s.2-.5.5-.5.5.2.5.5zM5 8.5c0 .3-.2.5-.5.5S4 8.8 4 8.5s.2-.5.5-.5.5.2.5.5zM5 9.5c0 .3-.2.5-.5.5S4 9.8 4 9.5s.2-.5.5-.5.5.2.5.5zM5 10.5c0 .3-.2.5-.5.5s-.5-.2-.5-.5.2-.5.5-.5.5.2.5.5zM5 11.5c0 .3-.2.5-.5.5s-.5-.2-.5-.5.2-.5.5-.5.5.2.5.5zM5 12.5c0 .3-.2.5-.5.5s-.5-.2-.5-.5.2-.5.5-.5.5.2.5.5zM5 13.5c0 .3-.2.5-.5.5s-.5-.2-.5-.5.2-.5.5-.5.5.2.5.5zM5 14.5c0 .3-.2.5-.5.5s-.5-.2-.5-.5.2-.5.5-.5.5.2.5.5zM5 15.5c0 .3-.2.5-.5.5s-.5-.2-.5-.5.2-.5.5-.5.5.2.5.5zM5 16.5c0 .3-.2.5-.5.5s-.5-.2-.5-.5.2-.5.5-.5.5.2.5.5zM6 2.5c0 .3-.2.5-.5.5S5 2.8 5 2.5s.2-.5.5-.5.5.2.5.5zM6 4.5c0 .3-.2.5-.5.5S5 4.8 5 4.5s.2-.5.5-.5.5.2.5.5zM6 6.5c0 .3-.2.5-.5.5S5 6.8 5 6.5s.2-.5.5-.5.5.2.5.5zM6 8.5c0 .3-.2.5-.5.5S5 8.8 5 8.5s.2-.5.5-.5.5.2.5.5zM6 10.5c0 .3-.2.5-.5.5s-.5-.2-.5-.5.2-.5.5-.5.5.2.5.5zM6 12.5c0 .3-.2.5-.5.5s-.5-.2-.5-.5.2-.5.5-.5.5.2.5.5zM6 14.5c0 .3-.2.5-.5.5s-.5-.2-.5-.5.2-.5.5-.5.5.2.5.5zM6 16.5c0 .3-.2.5-.5.5s-.5-.2-.5-.5.2-.5.5-.5.5.2.5.5zM7 3.5c0 .3-.2.5-.5.5S6 3.8 6 3.5s.2-.5.5-.5.5.2.5.5zM7 5.5c0 .3-.2.5-.5.5S6 5.8 6 5.5s.2-.5.5-.5.5.2.5.5zM7 7.5c0 .3-.2.5-.5.5S6 7.8 6 7.5s.2-.5.5-.5.5.2.5.5zM7 9.5c0 .3-.2.5-.5.5S6 9.8 6 9.5s.2-.5.5-.5.5.2.5.5zM7 11.5c0 .3-.2.5-.5.5s-.5-.2-.5-.5.2-.5.5-.5.5.2.5.5zM7 13.5c0 .3-.2.5-.5.5s-.5-.2-.5-.5.2-.5.5-.5.5.2.5.5zM7 15.5c0 .3-.2.5-.5.5s-.5-.2-.5-.5.2-.5.5-.5.5.2.5.5zM7 17.5c0 .3-.2.5-.5.5s-.5-.2-.5-.5.2-.5.5-.5.5.2.5.5zM9 2.5c0 .3-.2.5-.5.5S8 2.8 8 2.5s.2-.5.5-.5.5.2.5.5zM9 4.5c0 .3-.2.5-.5.5S8 4.8 8 4.5s.2-.5.5-.5.5.2.5.5zM9 6.5c0 .3-.2.5-.5.5S8 6.8 8 6.5s.2-.5.5-.5.5.2.5.5zM9 8.5c0 .3-.2.5-.5.5S8 8.8 8 8.5s.2-.5.5-.5.5.2.5.5zM9 10.5c0 .3-.2.5-.5.5s-.5-.2-.5-.5.2-.5.5-.5.5.2.5.5zM9 12.5c0 .3-.2.5-.5.5s-.5-.2-.5-.5.2-.5.5-.5.5.2.5.5zM9 14.5c0 .3-.2.5-.5.5s-.5-.2-.5-.5.2-.5.5-.5.5.2.5.5zM9 16.5c0 .3-.2.5-.5.5s-.5-.2-.5-.5.2-.5.5-.5.5.2.5.5zM11 3.5c0 .3-.2.5-.5.5s-.5-.2-.5-.5.2-.5.5-.5.5.2.5.5zM11 5.5c0 .3-.2.5-.5.5s-.5-.2-.5-.5.2-.5.5-.5.5.2.5.5zM11 7.5c0 .3-.2.5-.5.5s-.5-.2-.5-.5.2-.5.5-.5.5.2.5.5zM11 9.5c0 .3-.2.5-.5.5s-.5-.2-.5-.5.2-.5.5-.5.5.2.5.5zM11 11.5c0 .3-.2.5-.5.5s-.5-.2-.5-.5.2-.5.5-.5.5.2.5.5zM11 13.5c0 .3-.2.5-.5.5s-.5-.2-.5-.5.2-.5.5-.5.5.2.5.5zM11 15.5c0 .3-.2.5-.5.5s-.5-.2-.5-.5.2-.5.5-.5.5.2.5.5zM11 17.5c0 .3-.2.5-.5.5s-.5-.2-.5-.5.2-.5.5-.5.5.2.5.5zM5 17.5c0 .3-.2.5-.5.5s-.5-.2-.5-.5.2-.5.5-.5.5.2.5.5zM4 2.5c0 .3-.2.5-.5.5S3 2.8 3 2.5s.2-.5.5-.5.5.2.5.5zM4 3.5c0 .3-.2.5-.5.5S3 3.8 3 3.5s.2-.5.5-.5.5.2.5.5zM4 4.5c0 .3-.2.5-.5.5S3 4.8 3 4.5s.2-.5.5-.5.5.2.5.5zM4 5.5c0 .3-.2.5-.5.5S3 5.8 3 5.5s.2-.5.5-.5.5.2.5.5zM4 6.5c0 .3-.2.5-.5.5S3 6.8 3 6.5s.2-.5.5-.5.5.2.5.5zM4 7.5c0 .3-.2.5-.5.5S3 7.8 3 7.5s.2-.5.5-.5.5.2.5.5zM4 8.5c0 .3-.2.5-.5.5S3 8.8 3 8.5s.2-.5.5-.5.5.2.5.5zM4 9.5c0 .3-.2.5-.5.5S3 9.8 3 9.5s.2-.5.5-.5.5.2.5.5zM4 10.5c0 .3-.2.5-.5.5s-.5-.2-.5-.5.2-.5.5-.5.5.2.5.5zM4 11.5c0 .3-.2.5-.5.5s-.5-.2-.5-.5.2-.5.5-.5.5.2.5.5zM4 12.5c0 .3-.2.5-.5.5s-.5-.2-.5-.5.2-.5.5-.5.5.2.5.5zM4 13.5c0 .3-.2.5-.5.5s-.5-.2-.5-.5.2-.5.5-.5.5.2.5.5zM4 14.5c0 .3-.2.5-.5.5s-.5-.2-.5-.5.2-.5.5-.5.5.2.5.5zM4 15.5c0 .3-.2.5-.5.5s-.5-.2-.5-.5.2-.5.5-.5.5.2.5.5zM4 16.5c0 .3-.2.5-.5.5s-.5-.2-.5-.5.2-.5.5-.5.5.2.5.5zM4 17.5c0 .3-.2.5-.5.5s-.5-.2-.5-.5.2-.5.5-.5.5.2.5.5zM13 2.5c0 .3-.2.5-.5.5s-.5-.2-.5-.5.2-.5.5-.5.5.2.5.5zM13 6.5c0 .3-.2.5-.5.5s-.5-.2-.5-.5.2-.5.5-.5.5.2.5.5zM13 10.5c0 .3-.2.5-.5.5s-.5-.2-.5-.5.2-.5.5-.5.5.2.5.5zM13 14.5c0 .3-.2.5-.5.5s-.5-.2-.5-.5.2-.5.5-.5.5.2.5.5zM15 4.5c0 .3-.2.5-.5.5s-.5-.2-.5-.5.2-.5.5-.5.5.2.5.5zM15 8.5c0 .3-.2.5-.5.5s-.5-.2-.5-.5.2-.5.5-.5.5.2.5.5zM15 12.5c0 .3-.2.5-.5.5s-.5-.2-.5-.5.2-.5.5-.5.5.2.5.5zM15 16.5c0 .3-.2.5-.5.5s-.5-.2-.5-.5.2-.5.5-.5.5.2.5.5zM2.5 18c-.3 0-.5-.2-.5-.5v-15c0-.3.2-.5.5-.5s.5.2.5.5v15c0 .3-.2.5-.5.5z"/></svg>