<svg version="1.1"
	 xmlns="http://www.w3.org/2000/svg" xmlns:xlink="http://www.w3.org/1999/xlink" xmlns:a="http://ns.adobe.com/AdobeSVGViewerExtensions/3.0/"
	 x="0px" y="0px" width="19px" height="14px" viewBox="0 -1 19 14" enable-background="new 0 -1 19 14" xml:space="preserve">
<defs>
</defs>
<path fill="#010202" d="M18.354,6.146l-6-6c-0.194-0.195-0.512-0.195-0.707,0c-0.194,0.195-0.194,0.512,0,0.707l5.146,5.146H0.5
	c-0.276,0-0.5,0.224-0.5,0.5c0,0.276,0.224,0.5,0.5,0.5h16.293l-5.146,5.146c-0.194,0.195-0.194,0.513,0,0.707
	c0.099,0.099,0.227,0.146,0.354,0.146s0.256-0.049,0.354-0.146l6-6c0.194-0.194,0.194-0.512,0-0.707L18.354,6.146z"/>
</svg>
