<?xml version="1.0" encoding="utf-8"?>
<!-- Generator: Adobe Illustrator 15.0.2, SVG Export Plug-In  -->
<!DOCTYPE svg PUBLIC "-//W3C//DTD SVG 1.1//EN" "http://www.w3.org/Graphics/SVG/1.1/DTD/svg11.dtd" [
	<!ENTITY ns_flows "http://ns.adobe.com/Flows/1.0/">
]>
<svg version="1.1"
	 xmlns="http://www.w3.org/2000/svg" xmlns:xlink="http://www.w3.org/1999/xlink" xmlns:a="http://ns.adobe.com/AdobeSVGViewerExtensions/3.0/"
	 x="0px" y="0px" width="19px" height="14px" viewBox="0 0 19 14" enable-background="new 0 0 19 14" xml:space="preserve">
<defs>
</defs>
<path fill="#010202" d="M18.854,1.646C18.096,0.886,16.369,0,14,0c-2.051,0-3.623,0.667-4.5,1.339C8.623,0.667,7.052,0,5,0
	C2.633,0,0.906,0.887,0.146,1.646C0.052,1.74,0,1.867,0,2v11c0,0.202,0.122,0.385,0.309,0.462s0.402,0.035,0.545-0.108
	C1.357,12.852,2.796,12,5,12s3.644,0.852,4.146,1.354c0.195,0.195,0.512,0.195,0.707,0C10.356,12.852,11.795,12,14,12
	c2.203,0,3.643,0.852,4.145,1.354C18.242,13.45,18.369,13.5,18.5,13.5c0.063,0,0.129-0.012,0.189-0.038
	C18.877,13.385,19,13.202,19,13V2C19,1.867,18.945,1.74,18.854,1.646L18.854,1.646z M1,12.004V2.221c0.604-0.506,1.981-1.22,4-1.22
	s3.397,0.714,4,1.221v9.783c-0.918-0.542-2.292-1.004-4-1.004S1.918,11.462,1,12.004L1,12.004z M18,12.004
	C17.082,11.462,15.707,11,14,11s-3.082,0.462-4,1.004V2.221C10.604,1.715,11.98,1,14,1s3.396,0.714,4,1.22V12.004L18,12.004z"/>
</svg>
