<?xml version="1.0" encoding="utf-8"?>
<!-- Generator: Adobe Illustrator 15.0.2, SVG Export Plug-In  -->
<!DOCTYPE svg PUBLIC "-//W3C//DTD SVG 1.1//EN" "http://www.w3.org/Graphics/SVG/1.1/DTD/svg11.dtd" [
	<!ENTITY ns_flows "http://ns.adobe.com/Flows/1.0/">
]>
<svg version="1.1"
	 xmlns="http://www.w3.org/2000/svg" xmlns:xlink="http://www.w3.org/1999/xlink" xmlns:a="http://ns.adobe.com/AdobeSVGViewerExtensions/3.0/"
	 x="0px" y="0px" width="19px" height="19px" viewBox="0 0 19 19" enable-background="new 0 0 19 19" xml:space="preserve">
<defs>
</defs>
<path fill="#010202" d="M8.5,19c-2.3,0-4.4-0.9-6-2.5c-1.6-1.6-2.5-3.7-2.5-6c0-2.3,0.9-4.4,2.5-6C4.1,2.9,6.2,2,8.5,2
	C8.8,2,9,2.2,9,2.5S8.8,3,8.5,3C4.4,3,1,6.4,1,10.5S4.4,18,8.5,18c4.1,0,7.5-3.4,7.5-7.5c0-0.3,0.2-0.5,0.5-0.5s0.5,0.2,0.5,0.5
	c0,2.3-0.9,4.4-2.5,6C12.9,18.1,10.8,19,8.5,19z"/>
<path fill="#010202" d="M18.5,9h-8C10.2,9,10,8.8,10,8.5v-8C10,0.2,10.2,0,10.5,0c2.3,0,4.4,0.9,6,2.5c1.6,1.6,2.5,3.7,2.5,6
	C19,8.8,18.8,9,18.5,9z M11,8h7c-0.2-3.7-3.2-6.7-7-7V8z"/>
</svg>
