<?xml version="1.0" encoding="utf-8"?>
<!-- Generator: Adobe Illustrator 15.0.2, SVG Export Plug-In  -->
<!DOCTYPE svg PUBLIC "-//W3C//DTD SVG 1.1//EN" "http://www.w3.org/Graphics/SVG/1.1/DTD/svg11.dtd" [
	<!ENTITY ns_flows "http://ns.adobe.com/Flows/1.0/">
]>
<svg version="1.1"
	 xmlns="http://www.w3.org/2000/svg" xmlns:xlink="http://www.w3.org/1999/xlink" xmlns:a="http://ns.adobe.com/AdobeSVGViewerExtensions/3.0/"
	 x="0px" y="0px" width="32px" height="33px" viewBox="0 0 32 33" enable-background="new 0 0 32 33" xml:space="preserve">
<defs>
</defs>
<path fill="#454545" d="M23,0c-3,0-7,5.16-7,5.16S12,0,9,0C2.924,0,0,3.054,0,9.37c0,5.932,16,22.638,16,22.638S32,15.302,32,9.37
	C32,3.054,29.074,0,23,0z M2,9.646c0-5.328,1.684-7.584,7-7.584c1.578,0,7,5.162,7,5.162s5.422-5.162,7-5.162
	c5.316,0,7,2.256,7,7.584c0,5.006-14,19.264-14,19.264S2,14.652,2,9.646z"/>
</svg>
