<?xml version="1.0" encoding="utf-8"?>
<!-- Generator: Adobe Illustrator 15.0.2, SVG Export Plug-In  -->
<!DOCTYPE svg PUBLIC "-//W3C//DTD SVG 1.1//EN" "http://www.w3.org/Graphics/SVG/1.1/DTD/svg11.dtd" [
	<!ENTITY ns_flows "http://ns.adobe.com/Flows/1.0/">
]>
<svg version="1.1"
	 xmlns="http://www.w3.org/2000/svg" xmlns:xlink="http://www.w3.org/1999/xlink" xmlns:a="http://ns.adobe.com/AdobeSVGViewerExtensions/3.0/"
	 x="0px" y="0px" width="14px" height="20px" viewBox="-1 -1 14 20" enable-background="new -1 -1 14 20" xml:space="preserve">
<defs>
</defs>
<path fill="#010202" d="M2.5,19c-0.1,0-0.2,0-0.3-0.1C2,18.8,1.9,18.5,2,18.3L5.3,11H0.5c-0.2,0-0.4-0.1-0.5-0.3
	c-0.1-0.2,0-0.4,0.1-0.5l10-10C10.3,0,10.6,0,10.8,0.1C11,0.2,11.1,0.5,11,0.7L7.7,8h4.8c0.2,0,0.4,0.1,0.5,0.3s0,0.4-0.1,0.5
	l-10,10C2.8,19,2.6,19,2.5,19L2.5,19z M1.7,10h4.3c0.2,0,0.3,0.1,0.4,0.2c0.1,0.1,0.1,0.3,0,0.5L4,16.2L11.3,9H6.9
	C6.8,9,6.6,8.9,6.5,8.8c-0.1-0.1-0.1-0.3,0-0.5l2.5-5.5L1.7,10z"/>
</svg>
