<?xml version="1.0" encoding="utf-8"?>
<!-- Generator: Adobe Illustrator 15.0.2, SVG Export Plug-In  -->
<!DOCTYPE svg PUBLIC "-//W3C//DTD SVG 1.1//EN" "http://www.w3.org/Graphics/SVG/1.1/DTD/svg11.dtd" [
	<!ENTITY ns_flows "http://ns.adobe.com/Flows/1.0/">
]>
<svg version="1.1" xmlns="http://www.w3.org/2000/svg" xmlns:xlink="http://www.w3.org/1999/xlink" xmlns:a="http://ns.adobe.com/AdobeSVGViewerExtensions/3.0/" x="0px" y="0px" width="26px" height="30px" viewBox="0 0 26 30" enable-background="new 0 0 26 30" xml:space="preserve"><path fill="#454545" d="M13,16c-0.55,0-1,0.447-1,1v8.002C12,25.552,12.448,26,13,26s1-0.448,1-0.998V17C14,16.447,13.552,16,13,16zM13.004,26H13v0.002C13,26.002,13.002,26,13.004,26z M14,4.102V2h3c0.55,0,1-0.448,1-1c0-0.55-0.45-1-1-1h-3.996C13.002,0,13,0,12.998,0c0,0-0.002,0-0.004,0H9C8.448,0,8,0.45,8,1c0,0.552,0.448,1,1,1h3v2.102C5.296,4.622,0,10.164,0,17c0,7.18,5.82,13,13,13c7.18,0,13-5.82,13-13C26,10.164,20.704,4.622,14,4.102z M13,28.002C6.926,28.002,2,23.076,2,17C2,10.926,6.924,6.002,13,6.002S24,10.926,24,17C24,23.076,19.074,28.002,13,28.002z M13,8.002V10c3.868,0,7,3.134,7,7c0,1.962-0.813,3.729-2.109,5H18v2.48c2.41-1.615,4-4.36,4-7.48C22,12.03,17.968,8.002,13,8.002z"/></svg>
