<!DOCTYPE svg PUBLIC "-//W3C//DTD SVG 1.1//EN" "http://www.w3.org/Graphics/SVG/1.1/DTD/svg11.dtd" [
	<!ENTITY ns_flows "http://ns.adobe.com/Flows/1.0/">
]><svg xmlns="http://www.w3.org/2000/svg" width="19" height="14" viewBox="0 0 19 14"><path fill="#010202" d="M18.854 1.646C18.096.886 16.37 0 14 0c-2.05 0-3.623.667-4.5 1.34C8.623.666 7.052 0 5 0 2.633 0 .906.887.146 1.646.052 1.74 0 1.866 0 2v11c0 .202.122.385.31.462s.4.035.544-.108C1.357 12.852 2.796 12 5 12s3.644.852 4.146 1.354c.195.195.512.195.707 0C10.356 12.852 11.795 12 14 12c2.203 0 3.643.852 4.145 1.354.097.096.224.146.355.146.063 0 .13-.012.19-.038.187-.077.31-.26.31-.462V2c0-.133-.055-.26-.146-.354zM1 12.004V2.22C1.604 1.716 2.98 1 5 1s3.397.715 4 1.222v9.783C8.082 11.463 6.708 11 5 11s-3.082.462-4 1.004zm17 0C17.082 11.462 15.707 11 14 11s-3.082.462-4 1.004V2.22C10.604 1.716 11.98 1 14 1s3.396.714 4 1.22v9.784z"/></svg>