<!DOCTYPE svg PUBLIC "-//W3C//DTD SVG 1.1//EN" "http://www.w3.org/Graphics/SVG/1.1/DTD/svg11.dtd" [
	<!ENTITY ns_flows "http://ns.adobe.com/Flows/1.0/">
]><svg xmlns="http://www.w3.org/2000/svg" width="32" height="33" viewBox="0 0 32 33"><path fill="#454545" d="M23 0c-3 0-7 5.16-7 5.16S12 0 9 0C2.924 0 0 3.054 0 9.37c0 5.932 16 22.638 16 22.638S32 15.302 32 9.37C32 3.054 29.074 0 23 0zM2 9.646c0-5.328 1.684-7.584 7-7.584 1.578 0 7 5.162 7 5.162s5.422-5.162 7-5.162c5.316 0 7 2.256 7 7.584 0 5.006-14 19.264-14 19.264S2 14.652 2 9.646z"/></svg>