<!DOCTYPE svg PUBLIC "-//W3C//DTD SVG 1.1//EN" "http://www.w3.org/Graphics/SVG/1.1/DTD/svg11.dtd" [
	<!ENTITY ns_flows "http://ns.adobe.com/Flows/1.0/">
]><svg xmlns="http://www.w3.org/2000/svg" width="14" height="20" viewBox="-1 -1 14 20"><path fill="#010202" d="M2.5 19c-.1 0-.2 0-.3-.1-.2-.1-.3-.4-.2-.6L5.3 11H.5c-.2 0-.4-.1-.5-.3-.1-.2 0-.4.1-.5l10-10c.2-.2.5-.2.7-.1.2.1.3.4.2.6L7.7 8h4.8c.2 0 .4.1.5.3s0 .4-.1.5l-10 10c-.1.2-.3.2-.4.2zm-.8-9H6c.2 0 .3.1.4.2.1.1.1.3 0 .5L4 16.2 11.3 9H6.9c-.1 0-.3-.1-.4-.2-.1-.1-.1-.3 0-.5L9 2.8 1.7 10z"/></svg>