<!DOCTYPE svg PUBLIC "-//W3C//DTD SVG 1.1//EN" "http://www.w3.org/Graphics/SVG/1.1/DTD/svg11.dtd" [
	<!ENTITY ns_flows "http://ns.adobe.com/Flows/1.0/">
]><svg xmlns="http://www.w3.org/2000/svg" width="26" height="30" viewBox="0 0 26 30"><path fill="#454545" d="M13 16c-.55 0-1 .447-1 1v8.002c0 .55.448.998 1 .998s1-.448 1-.998V17c0-.553-.448-1-1-1zm.004 10H13v.002l.004-.002zM14 4.102V2h3c.55 0 1-.448 1-1 0-.55-.45-1-1-1h-4.002H9c-.552 0-1 .45-1 1 0 .552.448 1 1 1h3v2.102C5.296 4.622 0 10.164 0 17c0 7.18 5.82 13 13 13s13-5.82 13-13c0-6.836-5.296-12.378-12-12.898zm-1 23.9C6.926 28.002 2 23.076 2 17 2 10.926 6.924 6.002 13 6.002S24 10.926 24 17c0 6.076-4.926 11.002-11 11.002zm0-20V10c3.868 0 7 3.134 7 7 0 1.962-.813 3.73-2.11 5H18v2.48c2.41-1.615 4-4.36 4-7.48 0-4.97-4.032-8.998-9-8.998z"/></svg>