<!DOCTYPE svg PUBLIC "-//W3C//DTD SVG 1.1//EN" "http://www.w3.org/Graphics/SVG/1.1/DTD/svg11.dtd" [
	<!ENTITY ns_flows "http://ns.adobe.com/Flows/1.0/">
]><svg xmlns="http://www.w3.org/2000/svg" width="43" height="9" viewBox="-0.006 -0.519 43 9"><path fill="#5BA" d="M4.66.598c0-.165-.058-.305-.176-.422C4.367.06 4.226 0 4.062 0c-.177 0-.324.06-.442.176-.117.117-.175.258-.175.422v1.794c-.36-.47-.832-.703-1.414-.703-.593 0-1.08.217-1.46.654C.19 2.78 0 3.366 0 4.1c0 .746.19 1.333.57 1.76.38.428.866.642 1.46.642.57 0 1.042-.234 1.415-.703v.046c0 .165.058.306.175.422.118.117.26.176.423.176.177 0 .324-.058.44-.176.12-.116.177-.257.177-.422V.598zM3 5.282c-.197.097-.396.147-.598.147-.342 0-.62-.124-.836-.37-.215-.248-.323-.568-.323-.96 0-.398.107-.72.323-.968.215-.247.494-.37.836-.37.202 0 .4.05.597.147.195.097.343.222.445.373v1.623c-.102.153-.25.277-.446.376zM9.813 3.426c0-.614-.187-1.057-.56-1.33-.374-.27-.854-.407-1.442-.407-.328 0-.686.056-1.072.17-.386.114-.642.273-.77.475-.043.076-.065.155-.065.237 0 .133.048.244.143.332s.2.132.313.132c.068 0 .142-.02.217-.066.297-.196.64-.294 1.025-.294.303 0 .547.07.73.21.183.138.275.324.275.56v.616c-.316-.373-.8-.56-1.452-.56-.424 0-.796.123-1.116.37-.32.247-.48.617-.48 1.11 0 .475.163.847.488 1.115.326.27.695.404 1.106.404.64 0 1.123-.195 1.452-.588 0 .14.04.25.118.337.08.085.153.138.223.16.07.022.13.033.18.033h.096c.164 0 .303-.058.417-.176.114-.117.17-.258.17-.422v-2.42zM7.64 5.686c-.247 0-.452-.06-.617-.18-.165-.12-.247-.286-.247-.495 0-.214.083-.384.247-.507.165-.123.37-.184.617-.184.45 0 .772.132.968.397v.57c-.196.265-.52.398-.968.398zM13.372 5.576c-.094-.098-.224-.147-.39-.147h-.103c-.108 0-.205-.044-.29-.13-.087-.084-.13-.21-.13-.374v-2.07h.475c.14 0 .26-.052.36-.156.102-.104.152-.226.152-.365 0-.145-.05-.27-.152-.375-.1-.104-.22-.157-.36-.157h-.474v-.71c0-.166-.058-.307-.175-.424s-.257-.177-.423-.177c-.177 0-.324.06-.44.176-.117.116-.176.256-.176.422v.71h-.294c-.14 0-.26.052-.366.153-.104.1-.156.22-.156.36 0 .152.05.28.152.384.1.104.225.155.37.155h.294v2.392c0 .404.11.714.333.93.22.214.543.323.967.323.646 0 .97-.184.97-.55-.002-.15-.05-.276-.145-.374zM18.174 3.426c0-.614-.187-1.057-.56-1.33-.374-.27-.855-.407-1.443-.407-.328 0-.686.056-1.072.17-.386.114-.64.272-.768.475-.045.076-.066.155-.066.238 0 .133.047.244.142.332.096.088.2.132.313.132.068 0 .142-.02.218-.066.297-.195.638-.293 1.024-.293.305 0 .547.07.73.21.184.138.275.324.275.56v.616c-.316-.373-.8-.56-1.45-.56-.426 0-.797.123-1.117.37-.32.247-.48.617-.48 1.11 0 .475.164.847.49 1.115.325.27.694.404 1.106.404.638 0 1.122-.196 1.45-.59 0 .14.04.252.12.338.078.086.153.14.223.16.068.023.13.034.18.034h.093c.166 0 .304-.058.417-.176.115-.117.17-.258.17-.422v-2.42zM16 5.686c-.246 0-.452-.06-.616-.18-.166-.12-.247-.286-.247-.495 0-.214.082-.384.247-.507.164-.123.37-.185.617-.185.45 0 .772.133.968.398v.57c-.196.266-.518.4-.967.4zM23.716 2.344c0-.165-.06-.305-.176-.422-.117-.117-.257-.176-.423-.176-.177 0-.324.06-.44.176-.117.117-.176.257-.176.422v.038c-.36-.462-.83-.693-1.413-.693-.6 0-1.09.212-1.466.64-.375.427-.563 1.014-.563 1.76 0 .747.188 1.336.564 1.766.377.43.867.646 1.467.646.576 0 1.047-.234 1.414-.703V7.59c0 .164.06.305.177.423.117.117.258.175.423.175.177 0 .324-.058.44-.175.118-.118.177-.26.177-.423V2.344zM22.05 5.276c-.2.102-.393.152-.582.152-.342 0-.62-.123-.836-.37-.214-.247-.323-.57-.323-.97 0-.39.107-.71.322-.957.216-.246.494-.37.836-.37.196 0 .393.05.587.152.196.102.346.225.446.37v1.623c-.1.147-.25.27-.45.37zM29.2 2.335c0-.158-.056-.296-.17-.412-.114-.117-.253-.176-.417-.176-.177 0-.325.057-.442.17-.116.115-.174.254-.174.42v2.57c-.272.35-.62.523-1.044.523-.564 0-.845-.28-.845-.845v-2.25c0-.158-.057-.296-.17-.412-.114-.117-.253-.176-.417-.176-.178 0-.325.057-.442.17-.117.115-.175.254-.175.42V5.06c0 .456.124.81.37 1.063.247.253.617.38 1.11.38.664 0 1.2-.23 1.613-.693v.038c0 .165.058.306.175.422.118.117.26.176.423.176.17 0 .315-.058.432-.176.117-.117.175-.258.175-.422V2.335zM34.62 3.236c-.164-.48-.435-.86-.81-1.134-.377-.276-.823-.413-1.334-.413-.69 0-1.258.23-1.704.692-.445.462-.668 1.03-.668 1.708 0 .722.23 1.304.693 1.746.46.443 1.047.665 1.755.665.386 0 .78-.066 1.177-.198.398-.133.598-.32.598-.56 0-.14-.053-.255-.157-.347s-.222-.137-.355-.137c-.083 0-.16.018-.237.057-.284.15-.583.228-.892.228-.374 0-.677-.1-.91-.303-.235-.203-.37-.456-.41-.76h2.828c.158 0 .29-.055.4-.166.106-.11.16-.24.16-.384 0-.184-.045-.415-.134-.694zm-3.274.427c.03-.265.143-.5.332-.707.19-.205.456-.308.798-.308.36 0 .634.104.82.313s.29.444.31.703h-2.26zM39.08 4.29c-.132-.202-.3-.35-.503-.44-.202-.093-.42-.172-.654-.238-.234-.066-.453-.115-.654-.147-.204-.032-.37-.08-.504-.147-.133-.066-.2-.15-.2-.25 0-.134.067-.244.2-.33.133-.084.307-.127.52-.127.375 0 .72.093 1.036.277.07.038.145.057.228.057.126 0 .237-.044.333-.133.094-.088.142-.196.142-.322 0-.09-.025-.167-.075-.237-.12-.17-.347-.306-.68-.407s-.662-.152-.99-.152c-.582 0-1.042.14-1.376.418-.336.28-.503.62-.503 1.025 0 .284.068.523.205.716.136.192.304.333.503.42.2.09.417.166.654.23.237.062.456.11.656.14.198.032.367.085.503.157.136.073.205.166.205.28 0 .152-.065.272-.195.36-.13.088-.32.133-.574.133-.398 0-.81-.123-1.233-.37-.07-.045-.152-.067-.247-.067-.133 0-.25.05-.35.147-.106.1-.156.22-.156.357 0 .095.03.18.086.256.132.19.387.34.764.446.376.107.736.16 1.077.16.62 0 1.106-.137 1.457-.412.35-.275.526-.628.526-1.058 0-.29-.067-.538-.2-.74zM42.535 5.576c-.095-.098-.225-.147-.39-.147h-.103c-.108 0-.205-.044-.29-.13-.085-.084-.128-.21-.128-.374v-2.07h.475c.137 0 .26-.052.36-.156.1-.104.15-.226.15-.365 0-.145-.05-.27-.15-.375-.102-.104-.223-.157-.36-.157h-.476v-.71c0-.166-.058-.307-.175-.424-.118-.118-.26-.177-.424-.177-.177 0-.324.06-.44.176-.12.116-.177.256-.177.422v.71h-.295c-.14 0-.262.052-.366.153-.105.1-.158.22-.158.36 0 .152.05.28.152.384.1.104.224.155.37.155h.294v2.392c0 .404.11.714.332.93.222.214.545.323.968.323.646 0 .968-.184.968-.55 0-.15-.047-.276-.14-.374z"/></svg>