<?xml version="1.0" encoding="utf-8"?>
<!-- Generator: Adobe Illustrator 15.0.2, SVG Export Plug-In  -->
<!DOCTYPE svg PUBLIC "-//W3C//DTD SVG 1.1//EN" "http://www.w3.org/Graphics/SVG/1.1/DTD/svg11.dtd" [
	<!ENTITY ns_flows "http://ns.adobe.com/Flows/1.0/">
]>
<svg version="1.1"
	 xmlns="http://www.w3.org/2000/svg" xmlns:xlink="http://www.w3.org/1999/xlink" xmlns:a="http://ns.adobe.com/AdobeSVGViewerExtensions/3.0/"
	 x="0px" y="0px" width="43px" height="9px" viewBox="-0.006 -0.519 43 9" enable-background="new -0.006 -0.519 43 9"
	 xml:space="preserve">
<defs>
</defs>
<path fill="#55BBAA" d="M4.66,0.598c0-0.165-0.058-0.305-0.176-0.422C4.367,0.059,4.226,0,4.062,0C3.885,0,3.738,0.059,3.62,0.176
	C3.503,0.293,3.445,0.434,3.445,0.598v1.794C3.084,1.923,2.613,1.689,2.031,1.689c-0.594,0-1.082,0.218-1.461,0.655
	C0.19,2.78,0,3.366,0,4.1c0,0.746,0.19,1.333,0.569,1.761c0.38,0.427,0.867,0.641,1.461,0.641c0.569,0,1.042-0.234,1.415-0.703
	v0.047c0,0.165,0.058,0.306,0.175,0.422c0.118,0.117,0.259,0.176,0.423,0.176c0.177,0,0.324-0.058,0.441-0.176
	C4.602,6.152,4.66,6.011,4.66,5.846V0.598z M2.999,5.282C2.803,5.379,2.604,5.429,2.402,5.429c-0.342,0-0.621-0.123-0.836-0.37
	C1.351,4.812,1.243,4.492,1.243,4.1c0-0.398,0.107-0.721,0.323-0.968c0.215-0.247,0.494-0.37,0.836-0.37
	c0.202,0,0.401,0.049,0.597,0.147c0.196,0.098,0.344,0.223,0.446,0.374v1.623C3.343,5.059,3.195,5.183,2.999,5.282z"/>
<path fill="#55BBAA" d="M9.813,3.426c0-0.614-0.187-1.057-0.56-1.329C8.879,1.826,8.399,1.689,7.811,1.689
	c-0.329,0-0.687,0.057-1.073,0.171C6.352,1.974,6.096,2.133,5.969,2.335C5.925,2.411,5.903,2.49,5.903,2.572
	c0,0.133,0.048,0.244,0.143,0.332s0.2,0.132,0.313,0.132c0.069,0,0.143-0.021,0.218-0.066c0.297-0.196,0.639-0.294,1.025-0.294
	c0.303,0,0.547,0.07,0.73,0.209c0.183,0.139,0.275,0.325,0.275,0.56v0.617c-0.316-0.373-0.801-0.56-1.452-0.56
	c-0.424,0-0.796,0.123-1.116,0.37c-0.318,0.247-0.479,0.617-0.479,1.11c0,0.475,0.163,0.847,0.488,1.115
	c0.326,0.269,0.695,0.404,1.106,0.404c0.639,0,1.123-0.196,1.452-0.589c0,0.139,0.039,0.251,0.118,0.337
	c0.08,0.086,0.153,0.139,0.223,0.161c0.07,0.022,0.13,0.033,0.18,0.033h0.096c0.164,0,0.303-0.058,0.417-0.176
	c0.114-0.117,0.17-0.258,0.17-0.422V3.426z M7.64,5.685c-0.247,0-0.452-0.06-0.617-0.18C6.858,5.385,6.776,5.22,6.776,5.011
	c0-0.215,0.083-0.385,0.247-0.508C7.188,4.38,7.393,4.319,7.64,4.319c0.449,0,0.772,0.133,0.968,0.398v0.57
	C8.412,5.552,8.089,5.685,7.64,5.685L7.64,5.685z"/>
<path fill="#55BBAA" d="M13.372,5.576c-0.094-0.098-0.224-0.147-0.389-0.147h-0.104c-0.107,0-0.204-0.043-0.29-0.128
	c-0.086-0.085-0.128-0.21-0.128-0.375V2.856h0.474c0.14,0,0.26-0.052,0.36-0.156c0.102-0.104,0.152-0.226,0.152-0.365
	c0-0.145-0.05-0.27-0.152-0.375c-0.101-0.104-0.221-0.157-0.36-0.157h-0.474V1.092c0-0.165-0.059-0.306-0.176-0.423
	s-0.257-0.176-0.423-0.176c-0.177,0-0.324,0.059-0.44,0.176c-0.117,0.117-0.176,0.257-0.176,0.423v0.711h-0.294
	c-0.139,0-0.26,0.051-0.366,0.152c-0.104,0.101-0.156,0.221-0.156,0.36c0,0.152,0.05,0.28,0.152,0.384
	c0.101,0.105,0.225,0.156,0.37,0.156h0.294v2.392c0,0.404,0.111,0.714,0.333,0.93c0.221,0.214,0.544,0.323,0.968,0.323
	c0.646,0,0.969-0.184,0.969-0.551C13.515,5.799,13.467,5.674,13.372,5.576z"/>
<path fill="#55BBAA" d="M18.174,3.426c0-0.614-0.187-1.057-0.56-1.329c-0.374-0.272-0.855-0.408-1.443-0.408
	c-0.329,0-0.687,0.057-1.073,0.171c-0.386,0.114-0.641,0.272-0.768,0.475c-0.045,0.076-0.066,0.155-0.066,0.238
	c0,0.133,0.047,0.244,0.142,0.332c0.096,0.088,0.2,0.132,0.313,0.132c0.069,0,0.143-0.021,0.219-0.066
	c0.297-0.196,0.638-0.294,1.024-0.294c0.305,0,0.547,0.07,0.731,0.209c0.183,0.139,0.274,0.325,0.274,0.56v0.617
	c-0.316-0.373-0.8-0.56-1.451-0.56c-0.425,0-0.796,0.123-1.116,0.37c-0.319,0.247-0.479,0.617-0.479,1.11
	c0,0.475,0.163,0.847,0.489,1.115c0.325,0.269,0.694,0.404,1.106,0.404c0.638,0,1.122-0.196,1.451-0.589
	c0,0.139,0.04,0.251,0.119,0.337c0.078,0.086,0.153,0.139,0.223,0.161c0.069,0.022,0.13,0.033,0.18,0.033h0.094
	c0.166,0,0.304-0.058,0.417-0.176c0.115-0.117,0.171-0.258,0.171-0.422V3.426z M16.001,5.685c-0.247,0-0.453-0.06-0.617-0.18
	c-0.166-0.12-0.247-0.285-0.247-0.494c0-0.215,0.082-0.385,0.247-0.508c0.164-0.123,0.37-0.185,0.617-0.185
	c0.449,0,0.771,0.133,0.967,0.398v0.57C16.772,5.552,16.45,5.685,16.001,5.685L16.001,5.685z"/>
<path fill="#55BBAA" d="M23.716,2.344c0-0.165-0.059-0.305-0.176-0.422c-0.117-0.117-0.257-0.176-0.423-0.176
	c-0.177,0-0.324,0.059-0.44,0.176c-0.117,0.117-0.176,0.257-0.176,0.422v0.038c-0.36-0.462-0.831-0.693-1.414-0.693
	c-0.601,0-1.09,0.213-1.466,0.641c-0.376,0.427-0.564,1.014-0.564,1.76c0,0.747,0.188,1.336,0.564,1.766
	c0.376,0.43,0.866,0.646,1.466,0.646c0.576,0,1.047-0.234,1.414-0.703v1.793c0,0.164,0.059,0.305,0.176,0.423
	C22.794,8.132,22.935,8.19,23.1,8.19c0.177,0,0.324-0.058,0.441-0.175c0.117-0.118,0.176-0.259,0.176-0.423V2.344z M22.051,5.276
	c-0.2,0.102-0.394,0.152-0.583,0.152c-0.342,0-0.62-0.123-0.836-0.37c-0.214-0.247-0.323-0.569-0.323-0.969
	c0-0.391,0.108-0.711,0.323-0.958c0.216-0.247,0.494-0.37,0.836-0.37c0.196,0,0.393,0.05,0.587,0.151
	c0.196,0.102,0.346,0.225,0.446,0.37v1.623C22.4,5.052,22.25,5.176,22.051,5.276z"/>
<path fill="#55BBAA" d="M29.201,2.335c0-0.158-0.057-0.296-0.171-0.412c-0.114-0.117-0.253-0.176-0.417-0.176
	c-0.177,0-0.325,0.057-0.442,0.171c-0.117,0.114-0.175,0.253-0.175,0.418v2.572c-0.272,0.348-0.62,0.522-1.044,0.522
	c-0.564,0-0.845-0.281-0.845-0.845V2.335c0-0.158-0.057-0.296-0.17-0.412c-0.114-0.117-0.253-0.176-0.417-0.176
	c-0.178,0-0.325,0.057-0.442,0.171c-0.117,0.114-0.175,0.253-0.175,0.418v2.724c0,0.456,0.124,0.81,0.369,1.063
	c0.248,0.253,0.618,0.38,1.111,0.38c0.664,0,1.201-0.231,1.613-0.693v0.038c0,0.165,0.058,0.306,0.175,0.422
	c0.117,0.117,0.258,0.176,0.422,0.176c0.17,0,0.315-0.058,0.432-0.176c0.117-0.117,0.175-0.258,0.175-0.422V2.335z"/>
<path fill="#55BBAA" d="M34.62,3.236c-0.164-0.48-0.435-0.859-0.811-1.134c-0.376-0.276-0.822-0.413-1.333-0.413
	c-0.689,0-1.258,0.231-1.704,0.693c-0.445,0.462-0.668,1.031-0.668,1.708c0,0.722,0.23,1.304,0.693,1.746
	c0.461,0.443,1.047,0.665,1.755,0.665c0.386,0,0.779-0.067,1.177-0.199c0.399-0.133,0.599-0.32,0.599-0.56
	c0-0.14-0.053-0.255-0.157-0.347s-0.223-0.137-0.356-0.137c-0.083,0-0.161,0.018-0.237,0.057c-0.284,0.151-0.583,0.228-0.892,0.228
	c-0.374,0-0.677-0.101-0.911-0.303c-0.234-0.203-0.37-0.456-0.409-0.76h2.828c0.158,0,0.291-0.055,0.399-0.166
	c0.107-0.111,0.161-0.239,0.161-0.384C34.753,3.746,34.709,3.515,34.62,3.236L34.62,3.236z M31.346,3.663
	c0.031-0.265,0.143-0.501,0.332-0.707c0.19-0.205,0.456-0.308,0.798-0.308c0.361,0,0.634,0.104,0.821,0.313s0.29,0.443,0.309,0.702
	H31.346z"/>
<path fill="#55BBAA" d="M39.08,4.29c-0.132-0.202-0.3-0.35-0.503-0.441c-0.202-0.092-0.42-0.171-0.654-0.237
	c-0.234-0.066-0.453-0.115-0.654-0.147c-0.203-0.032-0.37-0.081-0.503-0.147c-0.133-0.066-0.199-0.15-0.199-0.251
	c0-0.133,0.066-0.243,0.199-0.328c0.133-0.085,0.307-0.128,0.521-0.128c0.374,0,0.718,0.092,1.035,0.276
	c0.069,0.038,0.145,0.057,0.228,0.057c0.126,0,0.237-0.044,0.333-0.133c0.094-0.089,0.142-0.197,0.142-0.323
	c0-0.089-0.025-0.167-0.075-0.237c-0.121-0.171-0.347-0.307-0.679-0.408s-0.663-0.152-0.992-0.152c-0.581,0-1.041,0.14-1.375,0.417
	c-0.336,0.279-0.503,0.62-0.503,1.025c0,0.284,0.067,0.523,0.204,0.716c0.136,0.193,0.304,0.334,0.503,0.422
	c0.2,0.088,0.417,0.165,0.654,0.228c0.237,0.063,0.456,0.111,0.656,0.142c0.198,0.031,0.367,0.084,0.503,0.156
	c0.135,0.073,0.204,0.166,0.204,0.28c0,0.152-0.065,0.272-0.195,0.36c-0.13,0.088-0.321,0.133-0.574,0.133
	c-0.398,0-0.81-0.123-1.233-0.37c-0.07-0.045-0.152-0.067-0.247-0.067c-0.133,0-0.25,0.049-0.351,0.147
	C35.42,5.379,35.37,5.499,35.37,5.637c0,0.095,0.029,0.18,0.086,0.256c0.132,0.19,0.387,0.339,0.764,0.446
	c0.376,0.108,0.736,0.162,1.077,0.162c0.62,0,1.106-0.138,1.457-0.413C39.105,5.813,39.28,5.46,39.28,5.03
	C39.28,4.739,39.213,4.492,39.08,4.29z"/>
<path fill="#55BBAA" d="M42.535,5.576c-0.095-0.098-0.225-0.147-0.389-0.147h-0.104c-0.108,0-0.205-0.043-0.29-0.128
	c-0.085-0.085-0.128-0.21-0.128-0.375V2.856h0.475c0.138,0,0.26-0.052,0.36-0.156c0.101-0.104,0.152-0.226,0.152-0.365
	c0-0.145-0.051-0.27-0.152-0.375c-0.101-0.104-0.222-0.157-0.36-0.157h-0.475V1.092c0-0.165-0.058-0.306-0.175-0.423
	c-0.117-0.117-0.259-0.176-0.423-0.176c-0.177,0-0.324,0.059-0.441,0.176c-0.118,0.117-0.176,0.257-0.176,0.423v0.711h-0.294
	c-0.14,0-0.262,0.051-0.366,0.152c-0.104,0.101-0.157,0.221-0.157,0.36c0,0.152,0.05,0.28,0.152,0.384
	c0.101,0.105,0.224,0.156,0.37,0.156h0.294v2.392c0,0.404,0.11,0.714,0.332,0.93c0.222,0.214,0.545,0.323,0.968,0.323
	c0.646,0,0.968-0.184,0.968-0.551C42.677,5.799,42.629,5.674,42.535,5.576z"/>
</svg>
